# xmcd
#
# Track frame offsets:
#	150
#	14739
#	26820
#	37191
#	49222
#	63297
#	77879
#	89801
#	100265
#	113739
#	126881
#	139346
#	152068
#	162660
#	175639
#	187848
#	199084
#	212252
#	223242
#	233796
#	246368
#	260330
#	271458
#	285457
#	296131
#	310337
#	321615
#	331544
#
# Disc length: 4599
#
# Revision: 1
# Processed by: cddbd v1.5.1PL0 Copyright (c) Steve Scherf et al.
# Submitted via: CDex 1.51
# Normalized: r0:TDELIM( - )
#
DISCID=b011f51c
DTITLE=Various Artist - Atomic Cocktails
DYEAR=1900
DGENRE=Blues
TTITLE0=Amos Milburn - One Scotch, One Bourbon, One Beer
TTITLE1=Slim Gaillard - Groove Juice Special
TTITLE2=Nat King Cole - Buy Me Another Drink
TTITLE3=Floyd Dixon - Wine Wine Wine
TTITLE4=Jack The Bear Parker - Chep Old Wine and Whiskey
TTITLE5=Stick McGhee - Drinkin' Wine Spo-dee-o-dee
TTITLE6=Slim Gaillard - Atomic Cocktail
TTITLE7=Calvin Boze - Looped
TTITLE8=Amos Milburn - Good, Good Whiskey
TTITLE9=Amos Miburn - Bad, Bad Whiskey
TTITLE10=Amos Miburn - Let Me Go Home Whiskey
TTITLE11=Slim Gaillard - The Bartender Is Like A Mother Me
TTITLE12=Clovers - One Mint Julep
TTITLE13=Big Jay McNeely - All That Wine Is Gone
TTITLE14=Willis Gater Jackson - Wine-O-Wine
TTITLE15=Jimmy Witherspoon - Barfly Blues
TTITLE16=Billy Wright - Drinkin' and Thinkin'
TTITLE17=Peppermint Harris - I Got Loaded
TTITLE18=Orioles - Wine Drinker
TTITLE19=David Bartholomew - Who Drank My Beer While I Was In The Rear
TTITLE20=Eddie Cleanhead Vinson - Juice Head Baby
TTITLE21=Nat King Cole - Scotchin With Soda
TTITLE22=Whnonie Harris - Whiskey and Jellyroll Blues
TTITLE23=Billy Wright - Mean Old Wine
TTITLE24=Joe Liggins - Pink Champagne (Live)
TTITLE25=Jimmy Liggins - Drunk
TTITLE26=Floyd Dixon - Wino Blues
TTITLE27=Louis Jordan - What's The Use of Getting Sober When You're Going To Get Drunk Again
EXTD=
EXTT0=
EXTT1=
EXTT2=
EXTT3=
EXTT4=
EXTT5=
EXTT6=
EXTT7=
EXTT8=
EXTT9=
EXTT10=
EXTT11=
EXTT12=
EXTT13=
EXTT14=
EXTT15=
EXTT16=
EXTT17=
EXTT18=
EXTT19=
EXTT20=
EXTT21=
EXTT22=
EXTT23=
EXTT24=
EXTT25=
EXTT26=
EXTT27=
PLAYORDER=
